<svg width="14" height="4" viewBox="0 0 14 4" fill="none" xmlns="http://www.w3.org/2000/svg">
    <path fill-rule="evenodd" clip-rule="evenodd" d="M3.08987 1.63689C3.08987 2.54092 2.39818 3.27378 1.54494 3.27378C0.691691 3.27378 0 2.54092 0 1.63689C0 0.732861 0.691691 0 1.54494 0C2.39818 0 3.08987 0.732861 3.08987 1.63689ZM8.08987 1.63689C8.08987 2.54092 7.39818 3.27378 6.54494 3.27378C5.69169 3.27378 5 2.54092 5 1.63689C5 0.732861 5.69169 0 6.54494 0C7.39818 0 8.08987 0.732861 8.08987 1.63689ZM11.5449 3.27378C12.3982 3.27378 13.0899 2.54092 13.0899 1.63689C13.0899 0.732861 12.3982 0 11.5449 0C10.6917 0 10 0.732861 10 1.63689C10 2.54092 10.6917 3.27378 11.5449 3.27378Z" fill="#D9D9D9"/>
</svg>
