<svg width="20" height="18" viewBox="0 0 20 18" fill="none" xmlns="http://www.w3.org/2000/svg">
<path fill-rule="evenodd" clip-rule="evenodd" d="M11.071 16.3092L10.6643 16.6699C10.3517 16.9472 10.1953 17.0859 10.0239 17.151C9.79523 17.2378 9.54273 17.2378 9.31411 17.151C9.14264 17.0859 8.98631 16.9472 8.67365 16.6699L8.26698 16.3092C6.63937 14.8584 5.29377 13.607 4.23018 12.5548C3.16659 11.5025 2.32056 10.5579 1.69207 9.72097C1.06359 8.88398 0.624456 8.11475 0.374674 7.41328C0.124892 6.71181 0 5.9944 0 5.26104C0 3.76244 0.507622 2.51095 1.52287 1.50657C2.53811 0.50219 3.80313 0 5.31794 0C6.15592 0 6.95361 0.175368 7.71102 0.526104C7.93377 0.629257 8.14747 0.744821 8.3521 0.872795C8.95603 1.25048 9.25799 1.43932 9.39317 1.47811C9.67338 1.55851 9.66459 1.55851 9.9448 1.47811C10.08 1.43932 10.3819 1.25048 10.9859 0.872796C11.1905 0.744821 11.4042 0.629257 11.627 0.526104C12.3844 0.175368 13.182 0 14.02 0C15.5348 0 16.7999 0.50219 17.8151 1.50657C18.8303 2.51095 19.338 3.76244 19.338 5.26104C19.338 5.9944 19.2131 6.71181 18.9633 7.41328C18.7135 8.11475 18.2744 8.88398 17.6459 9.72097C17.0174 10.5579 16.1714 11.5025 15.1078 12.5548C14.0442 13.607 12.6986 14.8584 11.071 16.3092Z" fill="#D9D9D9" fill-opacity="0.9"/>
</svg>
