<svg width="24" height="30" viewBox="0 0 24 30" fill="none" xmlns="http://www.w3.org/2000/svg">
    <path fill-rule="evenodd" clip-rule="evenodd" d="M3.71786 1.20237C4.5057 0.748737 5.46191 0.246445 7.73794 0.0548939C9.78956 -0.11777 10.715 0.156934 11.2878 0.326934C11.3504 0.345528 11.4089 0.362873 11.4641 0.378239C12.0241 0.534095 12.8266 0.789971 13.3968 1.08854C13.967 1.3871 14.6555 1.76939 14.8749 2.0044C15.0944 2.2394 15.1428 2.4007 15.184 2.54548C15.2251 2.69026 15.2177 2.08661 15.2131 2.14359C15.2084 2.20058 15.2114 1.74454 15.2221 1.59947C15.2324 1.45824 15.2354 1.44902 15.2685 1.34827L15.2712 1.33982C15.3069 1.23103 15.3664 1.14963 15.5295 1.07729C15.8084 0.952359 17.0567 0.714953 17.5078 0.657684C17.9411 0.602679 18.3532 0.638803 18.6004 0.660476L18.6301 0.663071C18.8731 0.684212 19.2019 0.749757 19.7836 0.91482C20.1618 1.02215 21.0248 1.38537 21.0472 1.40293C21.3391 1.53779 21.8142 1.77197 22.0928 2.06657C22.2881 2.27314 22.3225 2.35 22.3855 2.4908C22.4123 2.55082 22.4444 2.62244 22.4963 2.72068C22.67 3.04941 22.9976 4.19304 23.3353 6.20683C23.6274 7.79665 23.5282 9.15323 23.5077 9.48605C23.4871 9.81887 23.3368 10.4164 22.9634 10.8832C22.59 11.3499 22.5937 11.2982 22.2619 11.6018C21.4643 12.2605 20.7846 12.5857 20.7846 12.5857C20.7846 12.5857 19.8791 13.0425 19.3364 13.1677C19.29 13.2064 18.4777 13.345 18.3988 13.355C18.32 13.365 17.6421 13.3903 17.475 13.3782C17.3079 13.3661 16.9725 13.3135 16.7737 13.1745C16.6072 13.0581 16.4746 12.4991 16.432 12.3197C16.4237 12.2849 16.4189 12.2644 16.4178 12.264C16.4111 12.262 16.3965 12.2575 16.3809 12.2687C16.377 12.2739 16.3731 12.2851 16.3674 12.3017C16.3522 12.3453 16.3241 12.4263 16.249 12.5334C16.1646 12.6538 16.0357 12.7762 15.871 12.9326L15.8708 12.9328C15.8334 12.9683 15.7941 13.0056 15.7531 13.0451C15.5315 13.2581 15.1522 13.5491 14.7736 13.8266C14.395 14.1042 14.0932 14.2897 13.5818 14.5354C12.9911 14.7899 12.6544 14.9065 12.0448 15.0491C11.205 15.2572 10.6722 15.2975 9.96082 15.3137C9.24944 15.3299 8.63883 15.2024 8.53607 15.176C8.43331 15.1496 8.46718 15.2644 8.46718 15.2644L13.7417 24.6292L14.4727 25.9699C14.4971 26.0197 14.5194 26.0689 14.5397 26.1175C14.5015 26.1073 14.4597 26.1072 14.4148 26.1184C14.2158 26.1528 14.2198 26.3975 14.245 26.7265L14.2441 26.7267C13.9325 26.7856 13.5442 26.9 13.1666 27.0367C12.7992 27.1698 12.4392 27.325 12.1671 27.4728C12.0441 27.2943 11.8145 27.2149 11.5638 27.2468C11.221 27.1769 8.99144 28.7109 8.87586 29.2177C8.8443 29.1768 8.81219 29.1319 8.77937 29.0818L2.46765 17.8577C1.99239 16.9531 1.71635 16.4211 1.19323 15.3914C1.08628 15.1519 0.992295 14.9359 0.907688 14.7335C0.947474 14.7453 0.989527 14.749 1.03403 14.7434C1.50111 14.6841 1.88439 13.8071 1.946 13.2037C2.00761 12.6004 1.90525 12.2597 1.78787 11.9582C1.67049 11.6567 1.4885 10.8563 1.39734 10.4257C1.30619 9.99513 1.2955 8.73318 1.34624 8.4795C1.39488 8.23629 1.34628 7.85544 1.31606 7.61861L1.31227 7.58884C1.28262 7.35529 1.15535 6.97594 0.756233 6.94751C0.412594 6.92303 0.188685 7.24419 0 7.59553C0.220113 6.24312 0.682967 5.04446 0.905245 4.46882L0.922451 4.42425C1.0539 4.08348 1.42382 3.32529 2.05378 2.60821C2.68373 1.89112 3.33641 1.42201 3.71786 1.20237ZM15.52 7.45404C15.6688 8.68913 15.9452 10.5821 16.1224 11.4181C16.2428 11.9858 16.3229 12.1415 16.3517 12.1777C16.3482 12.1768 16.3439 12.1764 16.3388 12.177C16.2027 12.1934 15.7129 10.0937 15.3968 7.46888C15.0807 4.84408 15.058 2.68814 15.194 2.67175C15.2176 2.66891 15.2153 2.68224 15.2048 2.74148C15.1886 2.83341 15.1528 3.03594 15.164 3.46027C15.1874 4.34191 15.3436 5.98883 15.52 7.45404ZM16.3636 12.1865C16.3636 12.1846 16.3598 12.1798 16.3517 12.1777C16.3595 12.1874 16.3635 12.1885 16.3636 12.1865ZM23.1463 9.14431C23.2019 9.13562 23.2385 7.7564 22.9606 5.97843C22.6826 4.20046 22.1953 2.69703 22.1397 2.70572C22.0841 2.7144 22.2644 4.16277 22.5424 5.94074C22.8204 7.71871 23.0908 9.153 23.1463 9.14431ZM8.13061 16.759C8.5233 16.5874 9.02456 16.8918 9.38407 17.397C9.74359 17.9023 11.8022 21.6123 11.8022 21.6123C11.8022 21.6123 11.9562 21.8403 12.1269 22.1906C12.2976 22.5409 12.09 22.8184 11.7453 22.9902C11.4005 23.1619 10.5922 23.0857 10.1387 22.4627C9.68519 21.8397 7.89831 18.5928 7.71219 18.1863C7.52608 17.7798 7.45787 16.9806 8.13061 16.759Z" fill="#D9D9D9" fill-opacity="0.6"/>
    <path d="M12.2384 27.5508C12.5032 27.4067 12.858 27.2533 13.2229 27.1212C13.5913 26.9878 13.9669 26.877 14.2673 26.8192C14.2891 27.0838 14.3458 27.258 14.4625 27.3378C14.5261 27.3409 14.5742 27.3515 14.6037 27.3702C14.6243 27.3832 14.6352 27.4031 14.6374 27.4291C14.584 27.6316 14.4734 27.8547 14.2065 28.1251C13.7998 28.5373 13.5953 28.6691 13.1675 28.9448C13.1094 28.9822 13.0471 29.0224 12.9797 29.0662C11.8602 29.6838 11.1232 29.9781 10.6749 29.9988C10.4822 30.0077 10.2426 29.9644 10.0177 29.9005C10.0467 29.5305 10.9199 28.8797 12.0058 28.2611L12.0156 28.2564L12.0513 28.2391C12.2216 28.0838 12.2969 27.9051 12.2676 27.6742C12.262 27.6301 12.2521 27.589 12.2384 27.5508Z" fill="#D9D9D9" fill-opacity="0.6"/>
</svg>