<svg width="512" height="512" viewBox="0 0 512 512" fill="none" xmlns="http://www.w3.org/2000/svg">
<rect width="512" height="512" rx="71.3697" fill="#D9D9D9"/>
<rect width="512" height="512" rx="71.3697" fill="#7E51FD" fill-opacity="0.58"/>
<rect width="512" height="512" rx="71.3697" fill="url(#paint0_linear_31_1027)" fill-opacity="0.2" style="mix-blend-mode:plus-darker"/>
<path fill-rule="evenodd" clip-rule="evenodd" d="M156.893 52.4674C168.585 47.5769 182.691 42.3091 214.505 43.6562C243.181 44.8704 255.498 50.2944 263.121 53.6511L263.124 53.6523L263.126 53.6535L263.129 53.6547C263.96 54.0205 264.735 54.3617 265.469 54.6702C272.941 57.809 283.59 62.7567 290.951 67.8869C298.312 73.0172 307.164 79.5132 309.786 83.1485C312.408 86.7838 312.795 89.0997 313.11 91.1742C313.425 93.2487 314.382 84.8873 314.218 85.6672C314.053 86.4471 314.896 80.1454 315.297 78.1578C315.689 76.2228 315.747 76.1006 316.38 74.7651L316.433 74.6533C317.117 73.2113 318.084 72.19 320.466 71.4759C324.542 70.2378 342.224 69.1463 348.563 69.1463C354.652 69.1463 360.287 70.3694 363.668 71.1032L364.074 71.1912C367.398 71.9102 371.829 73.3939 379.585 76.6981C384.628 78.8466 395.924 85.385 396.204 85.6672C400.003 88.0448 406.163 92.1176 409.499 96.6812C411.837 99.8809 412.178 101.004 412.802 103.062C413.068 103.939 413.385 104.986 413.931 106.436C415.756 111.287 418.279 127.679 419.414 156.122C420.548 184.565 415.739 203.74 415.038 205.719C414.97 205.914 414.899 206.117 414.825 206.329L414.825 206.329C414.145 208.275 413.222 210.916 411.715 213.429C407.209 219.662 401.989 223.983 395.096 228.849C382.909 236.559 372.937 239.863 372.937 239.863C372.937 239.863 359.612 244.59 351.887 245.37C351.177 245.823 339.7 246.313 338.592 246.313C337.484 246.313 328.064 245.474 325.775 245.012C323.486 244.551 318.939 243.235 316.433 240.964C314.334 239.061 313.482 231.098 313.208 228.541C313.155 228.046 313.124 227.754 313.11 227.747L313.109 227.747C313.02 227.707 312.826 227.619 312.591 227.747C312.528 227.812 312.455 227.96 312.346 228.18L312.346 228.18C312.06 228.756 311.53 229.827 310.303 231.176C308.923 232.693 306.926 234.159 304.374 236.033L304.373 236.034C303.792 236.46 303.183 236.908 302.545 237.382C299.107 239.939 293.351 243.297 287.627 246.471C281.904 249.645 277.405 251.681 269.901 254.181C261.284 256.663 256.423 257.684 247.742 258.586C235.763 259.99 228.323 259.611 218.456 258.586C208.589 257.562 200.368 254.727 198.994 254.181C197.619 253.635 197.886 255.282 197.886 255.282L254.39 394.058L262.145 413.883C262.395 414.614 262.618 415.334 262.813 416.041C262.303 415.834 261.725 415.759 261.084 415.835C258.308 415.96 257.908 419.267 257.677 423.772C257.667 423.772 257.656 423.773 257.645 423.774C253.219 424.041 247.638 424.943 242.17 426.173C236.842 427.371 231.573 428.891 227.538 430.464C226.115 427.877 223.128 426.435 219.673 426.435C215.055 424.867 181.526 442.168 179.039 448.973C178.674 448.353 178.309 447.675 177.943 446.925L110.359 280.614C105.375 267.269 102.491 259.427 97.0644 244.268C96.006 240.767 95.0853 237.616 94.2706 234.668C94.8003 234.9 95.3754 235.026 96.0009 235.026C102.565 235.026 109.405 223.57 111.317 215.334C113.228 207.099 112.411 202.207 111.317 197.831C110.223 193.455 109.111 182.066 108.606 175.951C108.102 169.836 110.169 152.365 111.317 148.945C112.416 145.667 112.413 140.314 112.411 136.986L112.411 136.568C112.411 133.286 111.317 127.816 105.847 126.722C101.137 125.78 97.4763 129.829 94.2498 134.357C99.6685 116.04 108.174 100.275 112.259 92.7038L112.575 92.1177C114.992 87.6357 121.439 77.7994 131.41 68.9883C141.381 60.1771 151.231 54.8353 156.893 52.4674ZM228.275 432.508C232.182 430.98 237.362 429.481 242.647 428.292C247.962 427.097 253.335 426.227 257.575 425.954C257.434 429.556 257.921 432.007 259.372 433.294C260.246 433.449 260.892 433.68 261.268 433.99C261.529 434.206 261.645 434.5 261.63 434.863C260.536 437.57 258.615 440.461 254.448 443.733C248.1 448.719 245.041 450.183 238.639 453.245L238.639 453.245L238.639 453.245L238.638 453.246C237.769 453.661 236.839 454.107 235.83 454.594C219.262 461.171 208.553 463.947 202.317 463.446C199.636 463.23 196.399 462.211 193.401 460.931C194.452 455.866 207.67 448.399 223.774 441.75C223.997 441.675 224.22 441.6 224.442 441.525C227.071 439.676 228.425 437.337 228.425 434.092C228.425 433.537 228.374 433.009 228.275 432.508Z" fill="white"/>
<path fill-rule="evenodd" clip-rule="evenodd" d="M156.893 52.4674C168.585 47.5769 182.691 42.3091 214.505 43.6562C243.181 44.8704 255.498 50.2944 263.121 53.6511L263.124 53.6523L263.126 53.6535L263.129 53.6547C263.96 54.0205 264.735 54.3617 265.469 54.6702C272.941 57.809 283.59 62.7567 290.951 67.8869C298.312 73.0172 307.164 79.5132 309.786 83.1485C312.408 86.7838 312.795 89.0997 313.11 91.1742C313.425 93.2487 314.382 84.8873 314.218 85.6672C314.053 86.4471 314.896 80.1454 315.297 78.1578C315.689 76.2228 315.747 76.1006 316.38 74.7651L316.433 74.6533C317.117 73.2113 318.084 72.19 320.466 71.4759C324.542 70.2378 342.224 69.1463 348.563 69.1463C354.652 69.1463 360.287 70.3694 363.668 71.1032L364.074 71.1912C367.398 71.9102 371.829 73.3939 379.585 76.6981C384.628 78.8466 395.924 85.385 396.204 85.6672C400.003 88.0448 406.163 92.1176 409.499 96.6812C411.837 99.8809 412.178 101.004 412.802 103.062C413.068 103.939 413.385 104.986 413.931 106.436C415.756 111.287 418.279 127.679 419.414 156.122C420.548 184.565 415.739 203.74 415.038 205.719C414.97 205.914 414.899 206.117 414.825 206.329L414.825 206.329C414.145 208.275 413.222 210.916 411.715 213.429C407.209 219.662 401.989 223.983 395.096 228.849C382.909 236.559 372.937 239.863 372.937 239.863C372.937 239.863 359.612 244.59 351.887 245.37C351.177 245.823 339.7 246.313 338.592 246.313C337.484 246.313 328.064 245.474 325.775 245.012C323.486 244.551 318.939 243.235 316.433 240.964C314.334 239.061 313.482 231.098 313.208 228.541C313.155 228.046 313.124 227.754 313.11 227.747L313.109 227.747C313.02 227.707 312.826 227.619 312.591 227.747C312.528 227.812 312.455 227.96 312.346 228.18L312.346 228.18C312.06 228.756 311.53 229.827 310.303 231.176C308.923 232.693 306.926 234.159 304.374 236.033L304.373 236.034C303.792 236.46 303.183 236.908 302.545 237.382C299.107 239.939 293.351 243.297 287.627 246.471C281.904 249.645 277.405 251.681 269.901 254.181C261.284 256.663 256.423 257.684 247.742 258.586C235.763 259.99 228.323 259.611 218.456 258.586C208.589 257.562 200.368 254.727 198.994 254.181C197.619 253.635 197.886 255.282 197.886 255.282L254.39 394.058L262.145 413.883C262.395 414.614 262.618 415.334 262.813 416.041C262.303 415.834 261.725 415.759 261.084 415.835C258.308 415.96 257.908 419.267 257.677 423.772C257.667 423.772 257.656 423.773 257.645 423.774C253.219 424.041 247.638 424.943 242.17 426.173C236.842 427.371 231.573 428.891 227.538 430.464C226.115 427.877 223.128 426.435 219.673 426.435C215.055 424.867 181.526 442.168 179.039 448.973C178.674 448.353 178.309 447.675 177.943 446.925L110.359 280.614C105.375 267.269 102.491 259.427 97.0644 244.268C96.006 240.767 95.0853 237.616 94.2706 234.668C94.8003 234.9 95.3754 235.026 96.0009 235.026C102.565 235.026 109.405 223.57 111.317 215.334C113.228 207.099 112.411 202.207 111.317 197.831C110.223 193.455 109.111 182.066 108.606 175.951C108.102 169.836 110.169 152.365 111.317 148.945C112.416 145.667 112.413 140.314 112.411 136.986L112.411 136.568C112.411 133.286 111.317 127.816 105.847 126.722C101.137 125.78 97.4763 129.829 94.2498 134.357C99.6685 116.04 108.174 100.275 112.259 92.7038L112.575 92.1177C114.992 87.6357 121.439 77.7994 131.41 68.9883C141.381 60.1771 151.231 54.8353 156.893 52.4674ZM228.275 432.508C232.182 430.98 237.362 429.481 242.647 428.292C247.962 427.097 253.335 426.227 257.575 425.954C257.434 429.556 257.921 432.007 259.372 433.294C260.246 433.449 260.892 433.68 261.268 433.99C261.529 434.206 261.645 434.5 261.63 434.863C260.536 437.57 258.615 440.461 254.448 443.733C248.1 448.719 245.041 450.183 238.639 453.245L238.639 453.245L238.639 453.245L238.638 453.246C237.769 453.661 236.839 454.107 235.83 454.594C219.262 461.171 208.553 463.947 202.317 463.446C199.636 463.23 196.399 462.211 193.401 460.931C194.452 455.866 207.67 448.399 223.774 441.75C223.997 441.675 224.22 441.6 224.442 441.525C227.071 439.676 228.425 437.337 228.425 434.092C228.425 433.537 228.374 433.009 228.275 432.508Z" fill="url(#paint1_linear_31_1027)" fill-opacity="0.4"/>
<g filter="url(#filter0_b_31_1027)">
<path d="M187.943 273.425C194.797 271.485 202.365 277.627 207.147 286.757C211.928 295.887 237.468 361.621 237.468 361.621C237.468 361.621 239.489 365.724 241.511 371.877C243.532 378.03 239.489 382.132 233.425 384.183C227.361 386.234 214.221 383.157 208.157 371.877C202.093 360.596 179.985 303.101 177.836 295.987C175.688 288.874 176.365 275.559 187.943 273.425Z" fill="#7E51FD" fill-opacity="0.35"/>
<path d="M187.943 273.425C194.797 271.485 202.365 277.627 207.147 286.757C211.928 295.887 237.468 361.621 237.468 361.621C237.468 361.621 239.489 365.724 241.511 371.877C243.532 378.03 239.489 382.132 233.425 384.183C227.361 386.234 214.221 383.157 208.157 371.877C202.093 360.596 179.985 303.101 177.836 295.987C175.688 288.874 176.365 275.559 187.943 273.425Z" fill="url(#paint2_linear_31_1027)" fill-opacity="0.3"/>
</g>
<g filter="url(#filter1_b_31_1027)">
<path d="M415.806 158.254C415.806 185.675 412.008 206.351 411.152 206.351C410.295 206.351 409.6 184.123 409.6 156.703C409.6 129.283 410.295 107.054 411.152 107.054C412.008 107.054 415.806 130.834 415.806 158.254Z" fill="#7E51FD" fill-opacity="0.5"/>
<path d="M415.806 158.254C415.806 185.675 412.008 206.351 411.152 206.351C410.295 206.351 409.6 184.123 409.6 156.703C409.6 129.283 410.295 107.054 411.152 107.054C412.008 107.054 415.806 130.834 415.806 158.254Z" fill="url(#paint3_linear_31_1027)" fill-opacity="0.4"/>
</g>
<g filter="url(#filter2_b_31_1027)">
<path d="M415.806 158.254C415.806 185.675 412.008 206.351 411.152 206.351C410.295 206.351 409.6 184.123 409.6 156.703C409.6 129.283 410.295 107.054 411.152 107.054C412.008 107.054 415.806 130.834 415.806 158.254Z" fill="#7E51FD" fill-opacity="0.5"/>
<path d="M415.806 158.254C415.806 185.675 412.008 206.351 411.152 206.351C410.295 206.351 409.6 184.123 409.6 156.703C409.6 129.283 410.295 107.054 411.152 107.054C412.008 107.054 415.806 130.834 415.806 158.254Z" fill="url(#paint4_linear_31_1027)" fill-opacity="0.4"/>
</g>
<g filter="url(#filter3_b_31_1027)">
<path d="M309.146 159.714C309.146 177.028 309.899 203.645 311.092 215.492C312.434 228.822 314.176 226.338 313.038 226.338C310.888 226.338 307.2 196.51 307.2 159.714C307.2 122.919 310.888 93.0908 313.038 93.0908C313.987 93.0908 312.112 94.2644 311.092 103.937C309.802 116.158 309.146 139.175 309.146 159.714Z" fill="#7E51FD" fill-opacity="0.35"/>
</g>
<g filter="url(#filter4_f_31_1027)">
<path d="M268.854 429.279C272.4 438.098 252.05 455.069 228.072 462.352C204.093 469.634 177.266 435.554 182.019 455.652C186.772 475.75 93.6547 272.114 94.6418 237.382C99.7881 221.512 201.642 386.802 217.52 386.776C241.498 379.494 265.308 420.461 268.854 429.279Z" fill="white" fill-opacity="0.35"/>
</g>
<defs>
<filter id="filter0_b_31_1027" x="164.461" y="260.655" width="89.9878" height="136.533" filterUnits="userSpaceOnUse" color-interpolation-filters="sRGB">
<feFlood flood-opacity="0" result="BackgroundImageFix"/>
<feGaussianBlur in="BackgroundImageFix" stdDeviation="6.20606"/>
<feComposite in2="SourceAlpha" operator="in" result="effect1_backgroundBlur_31_1027"/>
<feBlend mode="normal" in="SourceGraphic" in2="effect1_backgroundBlur_31_1027" result="shape"/>
</filter>
<filter id="filter1_b_31_1027" x="397.188" y="94.6423" width="31.0303" height="124.121" filterUnits="userSpaceOnUse" color-interpolation-filters="sRGB">
<feFlood flood-opacity="0" result="BackgroundImageFix"/>
<feGaussianBlur in="BackgroundImageFix" stdDeviation="6.20606"/>
<feComposite in2="SourceAlpha" operator="in" result="effect1_backgroundBlur_31_1027"/>
<feBlend mode="normal" in="SourceGraphic" in2="effect1_backgroundBlur_31_1027" result="shape"/>
</filter>
<filter id="filter2_b_31_1027" x="397.188" y="94.6423" width="31.0303" height="124.121" filterUnits="userSpaceOnUse" color-interpolation-filters="sRGB">
<feFlood flood-opacity="0" result="BackgroundImageFix"/>
<feGaussianBlur in="BackgroundImageFix" stdDeviation="6.20606"/>
<feComposite in2="SourceAlpha" operator="in" result="effect1_backgroundBlur_31_1027"/>
<feBlend mode="normal" in="SourceGraphic" in2="effect1_backgroundBlur_31_1027" result="shape"/>
</filter>
<filter id="filter3_b_31_1027" x="294.788" y="80.6787" width="31.0303" height="158.254" filterUnits="userSpaceOnUse" color-interpolation-filters="sRGB">
<feFlood flood-opacity="0" result="BackgroundImageFix"/>
<feGaussianBlur in="BackgroundImageFix" stdDeviation="6.20606"/>
<feComposite in2="SourceAlpha" operator="in" result="effect1_backgroundBlur_31_1027"/>
<feBlend mode="normal" in="SourceGraphic" in2="effect1_backgroundBlur_31_1027" result="shape"/>
</filter>
<filter id="filter4_f_31_1027" x="69.8098" y="211.484" width="224.272" height="276.731" filterUnits="userSpaceOnUse" color-interpolation-filters="sRGB">
<feFlood flood-opacity="0" result="BackgroundImageFix"/>
<feBlend mode="normal" in="SourceGraphic" in2="BackgroundImageFix" result="shape"/>
<feGaussianBlur stdDeviation="12.4121" result="effect1_foregroundBlur_31_1027"/>
</filter>
<linearGradient id="paint0_linear_31_1027" x1="100.848" y1="512" x2="96.1939" y2="-2.82463e-05" gradientUnits="userSpaceOnUse">
<stop stop-color="#3B00E3"/>
<stop offset="1" stop-color="white" stop-opacity="0"/>
</linearGradient>
<linearGradient id="paint1_linear_31_1027" x1="263.156" y1="416.576" x2="265.448" y2="417.311" gradientUnits="userSpaceOnUse">
<stop stop-color="#B59FF3"/>
<stop offset="1" stop-color="white"/>
</linearGradient>
<linearGradient id="paint2_linear_31_1027" x1="198.594" y1="304.097" x2="220.315" y2="356.848" gradientUnits="userSpaceOnUse">
<stop stop-color="#7E51FD" stop-opacity="0.93"/>
<stop offset="1" stop-color="white"/>
</linearGradient>
<linearGradient id="paint3_linear_31_1027" x1="403.394" y1="153.6" x2="422.012" y2="153.6" gradientUnits="userSpaceOnUse">
<stop stop-color="#9B93B1"/>
<stop offset="1" stop-color="#9B93B1" stop-opacity="0"/>
<stop offset="1" stop-color="#9B93B1" stop-opacity="0"/>
</linearGradient>
<linearGradient id="paint4_linear_31_1027" x1="403.394" y1="153.6" x2="422.012" y2="153.6" gradientUnits="userSpaceOnUse">
<stop stop-color="#9B93B1"/>
<stop offset="1" stop-color="#9B93B1" stop-opacity="0"/>
<stop offset="1" stop-color="#9B93B1" stop-opacity="0"/>
</linearGradient>
</defs>
</svg>
