<svg width="16" height="17" viewBox="0 0 16 17" fill="none" xmlns="http://www.w3.org/2000/svg">
<rect y="1" width="16" height="16" rx="2.2303" fill="#D9D9D9"/>
<rect y="1" width="16" height="16" rx="2.2303" fill="#7E51FD" fill-opacity="0.58"/>
<rect y="1" width="16" height="16" rx="2.2303" fill="url(#paint0_linear_31_953)" fill-opacity="0.2" style="mix-blend-mode:plus-darker"/>
<path fill-rule="evenodd" clip-rule="evenodd" d="M4.90288 2.63945C5.26827 2.48663 5.70908 2.32201 6.70326 2.3641C7.59941 2.40205 7.98432 2.57155 8.22252 2.67645L8.22261 2.67648L8.22269 2.67652L8.22277 2.67656C8.24873 2.68799 8.27295 2.69865 8.2959 2.70829C8.52939 2.80638 8.86218 2.96099 9.09222 3.12131C9.32225 3.28163 9.59886 3.48463 9.6808 3.59824C9.76274 3.71184 9.77483 3.78421 9.78467 3.84904C9.79451 3.91387 9.82442 3.65257 9.81929 3.67695C9.81416 3.70132 9.84048 3.50439 9.85304 3.44228C9.86526 3.38181 9.86708 3.37799 9.88688 3.33626L9.88854 3.33276C9.9099 3.2877 9.9401 3.25578 10.0146 3.23347C10.1419 3.19478 10.6945 3.16067 10.8926 3.16067C11.0829 3.16067 11.259 3.19889 11.3646 3.22182L11.3773 3.22457C11.4812 3.24704 11.6197 3.29341 11.862 3.39666C12.0196 3.4638 12.3726 3.66813 12.3814 3.67695C12.5001 3.75125 12.6926 3.87852 12.7968 4.02113C12.8699 4.12113 12.8806 4.15623 12.9001 4.22054C12.9084 4.24795 12.9183 4.28066 12.9353 4.32597C12.9924 4.47757 13.0712 4.98981 13.1067 5.87866C13.1421 6.76752 12.9918 7.36671 12.9699 7.42858L12.9633 7.44761L12.9633 7.44762C12.942 7.50845 12.9132 7.59098 12.8661 7.66951C12.7253 7.86428 12.5622 7.99932 12.3467 8.15137C11.9659 8.3923 11.6543 8.49556 11.6543 8.49556C11.6543 8.49556 11.2379 8.64329 10.9965 8.66765C10.9743 8.68182 10.6156 8.69713 10.581 8.69713C10.5464 8.69713 10.252 8.6709 10.1805 8.65648C10.1089 8.64207 9.96682 8.60095 9.88854 8.52998C9.82294 8.47051 9.79631 8.22166 9.78775 8.14176C9.7861 8.12629 9.78512 8.11716 9.78467 8.11695L9.78466 8.11695C9.78187 8.11569 9.77581 8.11295 9.76847 8.11695C9.7665 8.11897 9.76421 8.1236 9.76081 8.13046L9.76081 8.13046C9.75188 8.14848 9.7353 8.18193 9.69696 8.22409C9.65384 8.2715 9.59142 8.31733 9.51168 8.37588L9.45453 8.41803C9.34707 8.49793 9.1672 8.60289 8.98835 8.70207C8.80949 8.80125 8.66889 8.86486 8.43439 8.943C8.16511 9.02057 8.01321 9.05248 7.74194 9.08067C7.36758 9.12454 7.13508 9.1127 6.82674 9.08067C6.51841 9.04865 6.2615 8.96006 6.21854 8.943C6.17558 8.92594 6.18392 8.97742 6.18392 8.97742L7.94967 13.3142L8.19203 13.9337C8.19985 13.9565 8.20679 13.979 8.21289 14.0011C8.19695 13.9947 8.17888 13.9923 8.15885 13.9947C8.07211 13.9986 8.0596 14.1019 8.0524 14.2427C8.05206 14.2427 8.05173 14.2428 8.05139 14.2428C7.91308 14.2511 7.73868 14.2793 7.56781 14.3178C7.4013 14.3552 7.23664 14.4027 7.11054 14.4519C7.06606 14.371 6.97272 14.3259 6.86478 14.3259C6.72046 14.2769 5.67271 14.8176 5.59496 15.0302C5.58357 15.0109 5.57215 14.9897 5.56071 14.9662L3.44873 9.76905C3.29296 9.352 3.20285 9.10694 3.03326 8.63323C3.00018 8.52383 2.97141 8.42534 2.94595 8.33322C2.9625 8.34048 2.98047 8.34441 3.00001 8.34441C3.20513 8.34441 3.4189 7.98641 3.47863 7.72904C3.53836 7.47168 3.51281 7.3188 3.47863 7.18206C3.44444 7.04531 3.4097 6.68942 3.39393 6.49832C3.37816 6.30722 3.44278 5.76124 3.47863 5.65439C3.513 5.55194 3.51289 5.38467 3.51282 5.28066L3.51281 5.26759C3.51281 5.16503 3.47863 4.9941 3.30769 4.95991C3.16052 4.93048 3.04613 5.057 2.9453 5.19849C3.11464 4.62608 3.38044 4.13344 3.50809 3.89685L3.50809 3.89684L3.51797 3.87852C3.59348 3.73846 3.79495 3.43108 4.10656 3.15573C4.41816 2.88038 4.72597 2.71345 4.90288 2.63945ZM7.13357 14.5157C7.25566 14.468 7.41753 14.4211 7.5827 14.384C7.7488 14.3466 7.91669 14.3195 8.0492 14.3109C8.04481 14.4235 8.06002 14.5001 8.10535 14.5403C8.13268 14.5451 8.15287 14.5523 8.16461 14.562C8.17277 14.5688 8.17641 14.578 8.17591 14.5893C8.14173 14.6739 8.08169 14.7643 7.9515 14.8665C7.75312 15.0223 7.65751 15.0681 7.45746 15.1638L7.45746 15.1638L7.45746 15.1638L7.36969 15.2059C6.85194 15.4114 6.51727 15.4982 6.32241 15.4825C6.23861 15.4758 6.13745 15.4439 6.04376 15.4039C6.07661 15.2456 6.48967 15.0123 6.99292 14.8045L7.01381 14.7975C7.09594 14.7397 7.13827 14.6666 7.13827 14.5652C7.13827 14.5479 7.13666 14.5314 7.13357 14.5157Z" fill="white"/>
<path fill-rule="evenodd" clip-rule="evenodd" d="M4.90288 2.63945C5.26827 2.48663 5.70908 2.32201 6.70326 2.3641C7.59941 2.40205 7.98432 2.57155 8.22252 2.67645L8.22261 2.67648L8.22269 2.67652L8.22277 2.67656C8.24873 2.68799 8.27295 2.69865 8.2959 2.70829C8.52939 2.80638 8.86218 2.96099 9.09222 3.12131C9.32225 3.28163 9.59886 3.48463 9.6808 3.59824C9.76274 3.71184 9.77483 3.78421 9.78467 3.84904C9.79451 3.91387 9.82442 3.65257 9.81929 3.67695C9.81416 3.70132 9.84048 3.50439 9.85304 3.44228C9.86526 3.38181 9.86708 3.37799 9.88688 3.33626L9.88854 3.33276C9.9099 3.2877 9.9401 3.25578 10.0146 3.23347C10.1419 3.19478 10.6945 3.16067 10.8926 3.16067C11.0829 3.16067 11.259 3.19889 11.3646 3.22182L11.3773 3.22457C11.4812 3.24704 11.6197 3.29341 11.862 3.39666C12.0196 3.4638 12.3726 3.66813 12.3814 3.67695C12.5001 3.75125 12.6926 3.87852 12.7968 4.02113C12.8699 4.12113 12.8806 4.15623 12.9001 4.22054C12.9084 4.24795 12.9183 4.28066 12.9353 4.32597C12.9924 4.47757 13.0712 4.98981 13.1067 5.87866C13.1421 6.76752 12.9918 7.36671 12.9699 7.42858L12.9633 7.44761L12.9633 7.44762C12.942 7.50845 12.9132 7.59098 12.8661 7.66951C12.7253 7.86428 12.5622 7.99932 12.3467 8.15137C11.9659 8.3923 11.6543 8.49556 11.6543 8.49556C11.6543 8.49556 11.2379 8.64329 10.9965 8.66765C10.9743 8.68182 10.6156 8.69713 10.581 8.69713C10.5464 8.69713 10.252 8.6709 10.1805 8.65648C10.1089 8.64207 9.96682 8.60095 9.88854 8.52998C9.82294 8.47051 9.79631 8.22166 9.78775 8.14176C9.7861 8.12629 9.78512 8.11716 9.78467 8.11695L9.78466 8.11695C9.78187 8.11569 9.77581 8.11295 9.76847 8.11695C9.7665 8.11897 9.76421 8.1236 9.76081 8.13046L9.76081 8.13046C9.75188 8.14848 9.7353 8.18193 9.69696 8.22409C9.65384 8.2715 9.59142 8.31733 9.51168 8.37588L9.45453 8.41803C9.34707 8.49793 9.1672 8.60289 8.98835 8.70207C8.80949 8.80125 8.66889 8.86486 8.43439 8.943C8.16511 9.02057 8.01321 9.05248 7.74194 9.08067C7.36758 9.12454 7.13508 9.1127 6.82674 9.08067C6.51841 9.04865 6.2615 8.96006 6.21854 8.943C6.17558 8.92594 6.18392 8.97742 6.18392 8.97742L7.94967 13.3142L8.19203 13.9337C8.19985 13.9565 8.20679 13.979 8.21289 14.0011C8.19695 13.9947 8.17888 13.9923 8.15885 13.9947C8.07211 13.9986 8.0596 14.1019 8.0524 14.2427C8.05206 14.2427 8.05173 14.2428 8.05139 14.2428C7.91308 14.2511 7.73868 14.2793 7.56781 14.3178C7.4013 14.3552 7.23664 14.4027 7.11054 14.4519C7.06606 14.371 6.97272 14.3259 6.86478 14.3259C6.72046 14.2769 5.67271 14.8176 5.59496 15.0302C5.58357 15.0109 5.57215 14.9897 5.56071 14.9662L3.44873 9.76905C3.29296 9.352 3.20285 9.10694 3.03326 8.63323C3.00018 8.52383 2.97141 8.42534 2.94595 8.33322C2.9625 8.34048 2.98047 8.34441 3.00001 8.34441C3.20513 8.34441 3.4189 7.98641 3.47863 7.72904C3.53836 7.47168 3.51281 7.3188 3.47863 7.18206C3.44444 7.04531 3.4097 6.68942 3.39393 6.49832C3.37816 6.30722 3.44278 5.76124 3.47863 5.65439C3.513 5.55194 3.51289 5.38467 3.51282 5.28066L3.51281 5.26759C3.51281 5.16503 3.47863 4.9941 3.30769 4.95991C3.16052 4.93048 3.04613 5.057 2.9453 5.19849C3.11464 4.62608 3.38044 4.13344 3.50809 3.89685L3.50809 3.89684L3.51797 3.87852C3.59348 3.73846 3.79495 3.43108 4.10656 3.15573C4.41816 2.88038 4.72597 2.71345 4.90288 2.63945ZM7.13357 14.5157C7.25566 14.468 7.41753 14.4211 7.5827 14.384C7.7488 14.3466 7.91669 14.3195 8.0492 14.3109C8.04481 14.4235 8.06002 14.5001 8.10535 14.5403C8.13268 14.5451 8.15287 14.5523 8.16461 14.562C8.17277 14.5688 8.17641 14.578 8.17591 14.5893C8.14173 14.6739 8.08169 14.7643 7.9515 14.8665C7.75312 15.0223 7.65751 15.0681 7.45746 15.1638L7.45746 15.1638L7.45746 15.1638L7.36969 15.2059C6.85194 15.4114 6.51727 15.4982 6.32241 15.4825C6.23861 15.4758 6.13745 15.4439 6.04376 15.4039C6.07661 15.2456 6.48967 15.0123 6.99292 14.8045L7.01381 14.7975C7.09594 14.7397 7.13827 14.6666 7.13827 14.5652C7.13827 14.5479 7.13666 14.5314 7.13357 14.5157Z" fill="url(#paint1_linear_31_953)" fill-opacity="0.4"/>
<g style="mix-blend-mode:plus-lighter" filter="url(#filter0_f_31_953)">
<path d="M3.80964 3.51119L3.25928 4.62058L3.05915 5.05555L3.35935 5.24887L3.30932 5.87716L3.20925 6.60211L3.35935 7.18206V7.85868L2.95909 8.72862L2.90906 9.06693L3.05915 9.74355L5.3106 14.7698L5.51073 14.5765L4.91035 13.175C4.56012 12.4822 3.84966 11.0678 3.80964 10.9518C3.76961 10.8358 3.42606 10.0657 3.25928 9.69522L3.10919 8.97027L3.60951 7.85868V7.18206V5.97382V5.10388L4.46006 3.65399H6.01106L6.96167 4.3306L8.11241 4.62058H8.66276L9.11305 4.18561L8.66276 3.28602L7.26186 2.74561H5.3106L3.80964 3.51119Z" fill="white" fill-opacity="0.4"/>
<path d="M4.71022 6.60211C5.36064 6.11881 5.7609 6.2638 5.7609 6.2638C5.7609 6.2638 7.46199 6.11881 7.66212 7.27872C7.86225 8.43864 6.76154 8.72862 6.76154 8.72862L6.01106 8.87361C6.01106 8.87361 5.51073 8.92194 5.41067 9.06693C5.31061 9.21192 5.41067 9.55023 5.41067 9.55023L4.91035 10.1302L5.06044 10.4202L5.91099 12.8367L6.41131 13.5133L6.8616 13.6583L7.26186 13.3683L7.56206 13.8033V14.2866L7.1618 14.4315L6.66148 14.3832L6.26122 14.0449L5.7609 12.9816L4.91035 10.5168V10.1302L4.46006 9.69522C4.46006 9.69522 4.0598 7.0854 4.71022 6.60211Z" fill="white" fill-opacity="0.4"/>
<path d="M10.8642 3.65399L9.89886 3.51119L9.9636 5.10388L10.1637 6.2638L10.514 6.79543L10.8642 6.45712V5.53885L11.2644 4.8139L12.3151 4.71724V4.18561L11.8094 4.00657L10.8642 3.65399Z" fill="white" fill-opacity="0.4"/>
</g>
<g filter="url(#filter1_b_31_953)">
<path d="M5.87319 9.54441C6.08736 9.48378 6.32387 9.67572 6.4733 9.96103C6.62272 10.2464 7.42083 12.3005 7.42083 12.3005C7.42083 12.3005 7.484 12.4287 7.54717 12.621C7.61033 12.8133 7.484 12.9415 7.29449 13.0056C7.10499 13.0697 6.69438 12.9735 6.50488 12.621C6.31537 12.2685 5.62449 10.4718 5.55735 10.2495C5.4902 10.0272 5.51138 9.6111 5.87319 9.54441Z" fill="#7E51FD" fill-opacity="0.35"/>
<path d="M5.87319 9.54441C6.08736 9.48378 6.32387 9.67572 6.4733 9.96103C6.62272 10.2464 7.42083 12.3005 7.42083 12.3005C7.42083 12.3005 7.484 12.4287 7.54717 12.621C7.61033 12.8133 7.484 12.9415 7.29449 13.0056C7.10499 13.0697 6.69438 12.9735 6.50488 12.621C6.31537 12.2685 5.62449 10.4718 5.55735 10.2495C5.4902 10.0272 5.51138 9.6111 5.87319 9.54441Z" fill="url(#paint2_linear_31_953)" fill-opacity="0.3"/>
</g>
<g filter="url(#filter2_b_31_953)">
<path d="M12.994 5.94521C12.994 6.80209 12.8753 7.44825 12.8485 7.44825C12.8218 7.44825 12.8 6.75361 12.8 5.89673C12.8 5.03985 12.8218 4.34521 12.8485 4.34521C12.8753 4.34521 12.994 5.08834 12.994 5.94521Z" fill="#7E51FD" fill-opacity="0.5"/>
<path d="M12.994 5.94521C12.994 6.80209 12.8753 7.44825 12.8485 7.44825C12.8218 7.44825 12.8 6.75361 12.8 5.89673C12.8 5.03985 12.8218 4.34521 12.8485 4.34521C12.8753 4.34521 12.994 5.08834 12.994 5.94521Z" fill="url(#paint3_linear_31_953)" fill-opacity="0.4"/>
</g>
<g filter="url(#filter3_b_31_953)">
<path d="M12.994 5.94521C12.994 6.80209 12.8753 7.44825 12.8485 7.44825C12.8218 7.44825 12.8 6.75361 12.8 5.89673C12.8 5.03985 12.8218 4.34521 12.8485 4.34521C12.8753 4.34521 12.994 5.08834 12.994 5.94521Z" fill="#7E51FD" fill-opacity="0.5"/>
<path d="M12.994 5.94521C12.994 6.80209 12.8753 7.44825 12.8485 7.44825C12.8218 7.44825 12.8 6.75361 12.8 5.89673C12.8 5.03985 12.8218 4.34521 12.8485 4.34521C12.8753 4.34521 12.994 5.08834 12.994 5.94521Z" fill="url(#paint4_linear_31_953)" fill-opacity="0.4"/>
</g>
<g filter="url(#filter4_b_31_953)">
<path d="M9.66079 5.99117C9.66079 6.53223 9.68433 7.36401 9.7216 7.73423C9.76353 8.15079 9.81797 8.07315 9.78241 8.07315C9.71524 8.07315 9.59998 7.14102 9.59998 5.99117C9.59998 4.84132 9.71524 3.90918 9.78241 3.90918C9.81209 3.90918 9.75349 3.94585 9.7216 4.24811C9.6813 4.63002 9.66079 5.3493 9.66079 5.99117Z" fill="#7E51FD" fill-opacity="0.35"/>
</g>
<g filter="url(#filter5_f_31_953)">
<path d="M8.40173 14.4149C8.51253 14.6905 7.87662 15.2209 7.12729 15.4484C6.37795 15.676 5.53962 14.611 5.68815 15.2391C5.83668 15.8671 2.92675 9.50352 2.9576 8.41813C3.11842 7.92219 6.30134 13.0875 6.79753 13.0867C7.54687 12.8591 8.29093 14.1393 8.40173 14.4149Z" fill="white" fill-opacity="0.35"/>
</g>
<defs>
<filter id="filter0_f_31_953" x="0.969664" y="0.806211" width="13.2848" height="15.9032" filterUnits="userSpaceOnUse" color-interpolation-filters="sRGB">
<feFlood flood-opacity="0" result="BackgroundImageFix"/>
<feBlend mode="normal" in="SourceGraphic" in2="BackgroundImageFix" result="shape"/>
<feGaussianBlur stdDeviation="0.969697" result="effect1_foregroundBlur_31_953"/>
</filter>
<filter id="filter1_b_31_953" x="5.13934" y="9.14532" width="2.81213" height="4.26648" filterUnits="userSpaceOnUse" color-interpolation-filters="sRGB">
<feFlood flood-opacity="0" result="BackgroundImageFix"/>
<feGaussianBlur in="BackgroundImageFix" stdDeviation="0.193939"/>
<feComposite in2="SourceAlpha" operator="in" result="effect1_backgroundBlur_31_953"/>
<feBlend mode="normal" in="SourceGraphic" in2="effect1_backgroundBlur_31_953" result="shape"/>
</filter>
<filter id="filter2_b_31_953" x="12.4122" y="3.95734" width="0.969727" height="3.87878" filterUnits="userSpaceOnUse" color-interpolation-filters="sRGB">
<feFlood flood-opacity="0" result="BackgroundImageFix"/>
<feGaussianBlur in="BackgroundImageFix" stdDeviation="0.193939"/>
<feComposite in2="SourceAlpha" operator="in" result="effect1_backgroundBlur_31_953"/>
<feBlend mode="normal" in="SourceGraphic" in2="effect1_backgroundBlur_31_953" result="shape"/>
</filter>
<filter id="filter3_b_31_953" x="12.4122" y="3.95734" width="0.969727" height="3.87878" filterUnits="userSpaceOnUse" color-interpolation-filters="sRGB">
<feFlood flood-opacity="0" result="BackgroundImageFix"/>
<feGaussianBlur in="BackgroundImageFix" stdDeviation="0.193939"/>
<feComposite in2="SourceAlpha" operator="in" result="effect1_backgroundBlur_31_953"/>
<feBlend mode="normal" in="SourceGraphic" in2="effect1_backgroundBlur_31_953" result="shape"/>
</filter>
<filter id="filter4_b_31_953" x="9.2121" y="3.5213" width="0.969727" height="4.94568" filterUnits="userSpaceOnUse" color-interpolation-filters="sRGB">
<feFlood flood-opacity="0" result="BackgroundImageFix"/>
<feGaussianBlur in="BackgroundImageFix" stdDeviation="0.193939"/>
<feComposite in2="SourceAlpha" operator="in" result="effect1_backgroundBlur_31_953"/>
<feBlend mode="normal" in="SourceGraphic" in2="effect1_backgroundBlur_31_953" result="shape"/>
</filter>
<filter id="filter5_f_31_953" x="2.18164" y="7.60901" width="7.00842" height="8.64771" filterUnits="userSpaceOnUse" color-interpolation-filters="sRGB">
<feFlood flood-opacity="0" result="BackgroundImageFix"/>
<feBlend mode="normal" in="SourceGraphic" in2="BackgroundImageFix" result="shape"/>
<feGaussianBlur stdDeviation="0.387879" result="effect1_foregroundBlur_31_953"/>
</filter>
<linearGradient id="paint0_linear_31_953" x1="3.15152" y1="17" x2="3.00606" y2="0.999999" gradientUnits="userSpaceOnUse">
<stop stop-color="#3B00E3"/>
<stop offset="1" stop-color="white" stop-opacity="0"/>
</linearGradient>
<linearGradient id="paint1_linear_31_953" x1="6.11386" y1="14.7635" x2="8.40597" y2="15.4988" gradientUnits="userSpaceOnUse">
<stop stop-color="#B59FF3"/>
<stop offset="1" stop-color="white"/>
</linearGradient>
<linearGradient id="paint2_linear_31_953" x1="6.20602" y1="10.5029" x2="6.88481" y2="12.1514" gradientUnits="userSpaceOnUse">
<stop stop-color="#7E51FD" stop-opacity="0.93"/>
<stop offset="1" stop-color="white"/>
</linearGradient>
<linearGradient id="paint3_linear_31_953" x1="12.6061" y1="5.79976" x2="13.1879" y2="5.79976" gradientUnits="userSpaceOnUse">
<stop stop-color="#9B93B1"/>
<stop offset="1" stop-color="#9B93B1" stop-opacity="0"/>
<stop offset="1" stop-color="#9B93B1" stop-opacity="0"/>
</linearGradient>
<linearGradient id="paint4_linear_31_953" x1="12.6061" y1="5.79976" x2="13.1879" y2="5.79976" gradientUnits="userSpaceOnUse">
<stop stop-color="#9B93B1"/>
<stop offset="1" stop-color="#9B93B1" stop-opacity="0"/>
<stop offset="1" stop-color="#9B93B1" stop-opacity="0"/>
</linearGradient>
</defs>
</svg>
